<mxfile host="app.diagrams.net" modified="2024-05-05T13:46:26.307Z" agent="Mozilla/5.0 (Macintosh; Intel Mac OS X 10_15_7) AppleWebKit/605.1.15 (KHTML, like Gecko) Version/17.0 Safari/605.1.15" version="24.3.1" etag="2kq0CEZqavGOeOO_KP0G" type="github">
  <diagram name="Page-1" id="uwc8Geruwt5VZXCud8k7">
    <mxGraphModel>
      <root>
        <mxCell id="0" />
        <mxCell id="1" parent="0" />
      </root>
    </mxGraphModel>
  </diagram>
</mxfile>
